Motion_pl05
version=1
nRows=6
nColumns=43
inDegrees=yes
endheader
time	pelvis_tilt	pelvis_list	pelvis_rotation	pelvis_tx	pelvis_ty	pelvis_tz	hip_flexion_r	hip_adduction_r	hip_rotation_r	knee_angle_r	ankle_angle_r	subtalar_angle_r	mtp_angle_r	hip_flexion_l	hip_adduction_l	hip_rotation_l	knee_angle_l	ankle_angle_l	subtalar_angle_l	mtp_angle_l	lumbar_extension	lumbar_bending	lumbar_rotation	neck_flexion	neck_lateral_bending	neck_rotation	arm_flex_r	arm_add_r	arm_rot_r	elbow_flex_r	pro_sup_r	wrist_flex_r	wrist_dev_r	hand_finger_flex_r	arm_flex_l	arm_add_l	arm_rot_l	elbow_flex_l	pro_sup_l	wrist_flex_l	wrist_dev_l	hand_finger_flex_l
      0.00250000	     -2.80771206	     -0.89004804	     92.88734559	      0.03033764	      1.91095727	      1.94150403	     57.73024860	     -7.82779985	      1.06735849	   -110.35283841	     29.04017671	     -2.79842560	     -1.15696180	     56.78943988	     -3.14730842	      4.02518496	   -106.06473913	     30.97704267	     -2.22561883	      3.61220100	    -53.90198618	     -0.16992116	     -2.33836320	     15.06367251	      0.45044030	     -0.10928909	     -3.64905169	    -23.50542730	     -6.58448689	     68.83361379	     99.67519505	    -36.61125941	      1.61347934	     35.33285350	     -5.28560013	    -20.33555127	    -20.60744698	     82.24109621	    120.33553614	    -19.35846264	     14.08853619	     77.27982791
      0.00500000	     -2.82915813	     -0.84882253	     92.88607562	      0.03030648	      1.91028378	      1.94140848	     57.77118214	     -7.84451323	      1.10131272	   -110.52173546	     29.04891449	     -2.81112150	     -1.16083132	     56.83576002	     -3.13247714	      4.03120561	   -106.25273954	     30.96201857	     -2.22484624	      3.60532795	    -54.02942915	     -0.16636200	     -2.32129669	     15.20308315	      0.45309735	     -0.12008985	     -3.70679226	    -23.47248005	     -6.52367357	     68.52584982	     99.62643752	    -36.53724439	      1.70247139	     35.34845182	     -5.29505358	    -20.27338786	    -20.54402934	     82.00144526	    120.29964515	    -19.30551274	     14.13624837	     77.29438986
      0.00750000	     -2.85019169	     -0.87861131	     92.87932202	      0.03037141	      1.90985717	      1.94131540	     57.83030893	     -7.82203032	      1.16029864	   -110.57965522	     29.06707365	     -2.79677522	     -1.16709332	     56.91057699	     -3.13381448	      4.02502787	   -106.31541487	     30.91338249	     -2.18808616	      3.58588323	    -54.07929139	     -0.17747675	     -2.30145939	     15.33615534	      0.42620762	     -0.17575017	     -3.62970173	    -23.46712506	     -6.35983882	     68.02010407	     99.43323215	    -36.22399347	      1.94550713	     35.45312456	     -5.18167057	    -20.21366896	    -20.43586933	     81.57789826	    120.11923772	    -19.14455666	     14.24273337	     77.36518568
      0.01000000	     -2.85493560	     -0.90492970	     92.83756356	      0.03044002	      1.90911955	      1.94121438	     57.93650567	     -7.76966842	      1.22751278	   -110.72111830	     29.09838417	     -2.75985323	     -1.16706749	     57.01989097	     -3.17285085	      4.02409597	   -106.47378330	     30.89544934	     -2.13393261	      3.56518459	    -54.09468912	     -0.19384268	     -2.28786707	     15.34391721	      0.37975445	     -0.22589122	     -3.56356409	    -23.48111588	     -6.21254022	     67.59755846	     99.09044396	    -35.73309577	      2.26316081	     35.63529938	     -5.16950109	    -20.16590071	    -20.38520429	     81.22645809	    119.77736932	    -18.89756994	     14.37665235	     77.50550427
      0.01250000	     -2.86327557	     -0.85722332	     92.84068349	      0.03051037	      1.90831002	      1.94101839	     57.97032302	     -7.75673321	      1.26577876	   -110.92251409	     29.10967795	     -2.76718556	     -1.16425636	     57.05879338	     -3.18209728	      4.05065154	   -106.66030839	     30.90334045	     -2.13551263	      3.56491571	    -54.20557619	     -0.18261658	     -2.28640181	     15.42575060	      0.37434801	     -0.22284491	     -3.69069059	    -23.42492436	     -6.16397802	     67.40836462	     99.04169929	    -35.67220386	      2.32453431	     35.65356099	     -5.26667434	    -20.10762723	    -20.36174980	     81.06541171	    119.74130904	    -18.86205233	     14.40879402	     77.51811592
      0.01500000	     -2.84597099	     -0.97294405	     92.73914021	      0.03072547	      1.90735605	      1.94099736	     58.20745761	     -7.63993925	      1.34703345	   -111.06904737	     29.16729740	     -2.64093260	     -1.13296458	     57.29087539	     -3.29520415	      4.05078350	   -106.85458165	     30.89558141	     -1.97166343	      3.53507775	    -54.11063729	     -0.23979580	     -2.29253693	     15.34349211	      0.34740667	     -0.23141483	     -3.53156517	    -23.46212082	     -5.99554526	     66.98723862	     98.25785717	    -34.75226706	      2.75326605	     35.99365814	     -5.30225324	    -20.09996195	    -20.39703895	     80.70552519	    119.00998868	    -18.32082041	     14.68773887	     77.82032723
